<?xml version="1.0" standalone="no"?>
<!DOCTYPE svg PUBLIC "-//W3C//DTD SVG 20010904//EN"
 "http://www.w3.org/TR/2001/REC-SVG-20010904/DTD/svg10.dtd">
<svg version="1.0" xmlns="http://www.w3.org/2000/svg"
 width="8.000000pt" height="8.000000pt" viewBox="0 0 512.000000 524.000000"
 preserveAspectRatio="xMidYMid meet">

<g transform="translate(0.000000,512.000000) scale(0.100000,-0.100000)"
fill="grey" stroke="none">
<path d="M2405 4954 c-371 -37 -615 -103 -900 -244 -489 -241 -854 -606 -1095
-1095 -169 -341 -244 -667 -244 -1055 0 -388 75 -714 244 -1055 239 -485 606
-854 1085 -1090 168 -83 296 -132 441 -170 358 -93 709 -106 1064 -41 971 180
1736 945 1916 1916 65 355 52 706 -41 1064 -38 145 -87 273 -170 441 -351 712
-1024 1196 -1820 1311 -100 14 -404 26 -480 18z m331 -465 c384 -37 745 -184
1044 -426 88 -71 246 -233 311 -318 293 -383 440 -869 401 -1326 -42 -492
-241 -914 -588 -1249 -333 -322 -732 -501 -1203 -542 -457 -39 -943 108 -1326
401 -85 65 -247 223 -318 311 -311 386 -469 887 -429 1363 16 178 42 308 93
462 194 583 651 1040 1234 1234 256 85 520 116 781 90z"/>
<path d="M1865 3673 c-36 -10 -77 -45 -91 -79 -21 -50 -21 -2018 0 -2068 21
-50 70 -80 130 -80 49 -1 93 23 961 501 501 276 922 513 937 527 48 47 48 125
0 172 -15 14 -436 251 -937 526 -899 495 -943 517 -1000 501z"/>
</g>
</svg>
