<?xml version="1.0" standalone="no"?>
<!DOCTYPE svg PUBLIC "-//W3C//DTD SVG 20010904//EN"
 "http://www.w3.org/TR/2001/REC-SVG-20010904/DTD/svg10.dtd">
<svg version="1.0" xmlns="http://www.w3.org/2000/svg"
 width="33.000000pt" height="15.000000pt" viewBox="0 0 231.000000 105.000000"
 preserveAspectRatio="xMidYMid meet">

<g transform="translate(0.000000,105.000000) scale(0.100000,-0.100000)"
fill="green" stroke="none">
<path d="M583 1011 c-218 -76 -357 -287 -340 -516 8 -99 26 -160 72 -235 48
-79 130 -151 222 -197 l77 -38 571 0 571 0 77 38 c231 114 341 349 279 596
-43 167 -167 300 -330 354 l-81 27 -518 0 -518 0 -82 -29z m1173 -165 c71 -33
138 -97 171 -164 38 -79 44 -194 12 -277 -28 -75 -102 -155 -178 -192 -48 -24
-67 -27 -146 -27 -111 1 -165 23 -246 104 -45 44 -60 68 -78 123 -53 158 8
332 144 411 101 60 220 68 321 22z"/>
</g>
</svg>
