<?xml version="1.0" standalone="no"?>
<!DOCTYPE svg PUBLIC "-//W3C//DTD SVG 20010904//EN"
 "http://www.w3.org/TR/2001/REC-SVG-20010904/DTD/svg10.dtd">
<svg version="1.0" xmlns="http://www.w3.org/2000/svg"
 width="33.000000pt" height="15.000000pt" viewBox="0 0 228.000000 104.000000"
 preserveAspectRatio="xMidYMid meet">

<g transform="translate(0.000000,104.000000) scale(0.100000,-0.100000)"
fill="#000000" stroke="none">
<path d="M523 1001 c-218 -76 -357 -287 -340 -516 8 -99 26 -160 72 -235 48
-79 130 -151 222 -197 l77 -38 571 0 571 0 77 38 c231 114 341 349 279 596
-43 167 -167 300 -330 354 l-81 27 -518 0 -518 0 -82 -29z m1209 -88 c208 -98
306 -325 233 -535 -45 -130 -152 -233 -283 -275 -52 -16 -101 -18 -557 -18
-456 0 -505 2 -557 18 -131 42 -238 145 -283 275 -81 232 48 480 290 558 31
10 160 13 565 11 l525 -2 67 -32z"/>
<path d="M587 840 c-193 -61 -291 -285 -203 -464 38 -77 78 -119 148 -156 53
-28 76 -34 143 -38 105 -5 178 21 250 89 76 72 99 124 103 237 4 88 2 97 -27
157 -77 156 -248 229 -414 175z"/>
</g>
</svg>
