<?xml version="1.0" standalone="no"?>
<!DOCTYPE svg PUBLIC "-//W3C//DTD SVG 20010904//EN"
 "http://www.w3.org/TR/2001/REC-SVG-20010904/DTD/svg10.dtd">
<svg version="1.0" xmlns="http://www.w3.org/2000/svg"
 width="800.000000pt" height="600.000000pt" viewBox="0 0 800.000000 600.000000"
 preserveAspectRatio="xMidYMid meet">

<g transform="translate(0.000000,600.000000) scale(0.100000,-0.100000)"
fill="#000000" stroke="none">
<path d="M2345 5693 c-41 -4 -146 -23 -167 -29 -24 -7 -23 -21 2 -29 11 -4 28
-18 37 -32 17 -26 17 -26 -41 -79 -64 -58 -124 -84 -195 -84 -60 1 -85 19 -79
59 3 17 1 31 -3 31 -22 0 -214 -129 -325 -219 -164 -133 -240 -211 -282 -286
-18 -33 -44 -78 -58 -100 -17 -29 -24 -55 -24 -93 0 -62 9 -69 69 -47 24 8 58
15 75 15 17 0 55 6 83 13 44 12 57 12 85 0 18 -8 74 -24 123 -35 140 -32 246
-91 345 -192 24 -25 53 -46 65 -46 11 0 36 -14 55 -30 19 -17 41 -28 47 -25
15 5 43 -33 43 -59 0 -10 29 -80 64 -155 35 -75 80 -172 101 -216 129 -275
160 -405 116 -481 -27 -46 -13 -52 75 -30 37 9 68 16 69 14 2 -2 -3 -43 -11
-92 -12 -72 -12 -110 -4 -190 16 -147 57 -326 81 -356 53 -67 87 -180 70 -238
-9 -30 6 -113 27 -146 3 -5 41 28 85 75 48 51 81 79 84 71 3 -8 15 0 33 22 15
20 30 33 34 29 3 -3 6 9 6 28 -1 32 -2 33 -15 15 -19 -25 -39 -15 -68 31 -35
56 -49 107 -51 184 -1 53 3 72 17 86 22 23 44 11 74 -43 31 -53 44 -104 45
-175 1 -54 2 -58 15 -39 8 11 20 20 26 20 7 0 39 27 72 60 32 32 62 57 67 54
13 -8 10 11 -12 69 -25 66 -29 162 -8 183 8 8 27 16 42 18 14 1 25 5 24 9 -4
7 43 57 53 57 15 0 91 -121 136 -216 54 -115 130 -341 178 -534 20 -80 38
-153 41 -162 3 -11 0 -18 -9 -18 -27 0 -67 41 -103 105 -30 54 -41 66 -72 75
-20 5 -40 10 -44 10 -18 0 -6 -50 28 -115 50 -97 110 -179 188 -254 56 -53 66
-68 66 -97 0 -38 -4 -39 -80 -23 -28 6 -54 9 -56 6 -4 -4 9 -13 96 -68 14 -9
31 -14 38 -11 9 3 12 -15 12 -72 0 -63 4 -82 22 -106 30 -41 41 -120 19 -138
-23 -19 170 -7 308 19 100 19 374 105 433 135 15 8 60 26 100 40 78 28 124 54
97 54 -9 0 -19 17 -27 46 -7 25 -27 77 -44 116 -26 56 -38 72 -66 84 -22 9
-32 19 -29 28 3 8 -4 22 -15 33 -74 66 -60 224 24 285 19 13 51 23 83 26 47 4
55 1 88 -27 42 -38 60 -83 56 -147 -3 -41 0 -48 19 -55 12 -5 22 -15 22 -23 0
-20 -39 -86 -51 -86 -19 0 -8 -20 20 -35 16 -8 58 -42 93 -75 l63 -61 -55 -29
c-93 -49 -48 -33 82 28 68 33 148 78 178 101 151 114 247 315 258 535 5 125
-5 212 -54 439 -99 459 -161 643 -279 822 -82 125 -237 246 -368 287 -104 32
-284 58 -432 63 -125 3 -156 0 -295 -27 -85 -16 -206 -45 -267 -64 -62 -19
-118 -34 -124 -34 -5 0 -33 -10 -62 -22 l-51 -22 94 -18 c52 -10 118 -20 145
-23 102 -12 113 -15 118 -35 4 -14 14 -20 34 -20 42 0 71 -10 77 -26 8 -21
-70 -101 -153 -156 -64 -42 -72 -50 -53 -55 15 -3 22 -13 22 -29 0 -46 -156
-104 -280 -104 -42 0 -80 -7 -106 -19 l-41 -19 11 30 c9 26 8 32 -8 44 -46 33
-199 5 -271 -51 -19 -14 -47 -25 -64 -25 -38 0 -48 -16 -26 -40 25 -28 31
-104 11 -135 -20 -30 -29 -31 -66 -5 -27 19 -90 128 -90 156 0 7 10 14 23 16
13 2 23 11 25 23 2 17 -7 24 -46 38 -27 10 -59 27 -71 38 -27 26 -27 72 1 98
20 20 20 21 2 27 -49 15 -64 25 -90 60 -25 33 -29 46 -28 104 0 51 5 75 23
104 44 71 109 92 178 59 44 -20 71 -64 79 -126 5 -37 9 -45 20 -37 14 12 81 4
89 -11 3 -4 -23 -22 -57 -40 -35 -17 -76 -43 -91 -57 -24 -23 -26 -27 -10 -33
23 -8 77 4 148 34 80 34 109 60 101 91 -5 22 -1 26 47 42 115 38 185 80 222
130 52 74 92 160 115 249 17 66 19 98 14 185 -8 143 -29 211 -146 455 -151
318 -247 451 -391 550 -100 67 -207 105 -325 112 -73 5 -85 4 -105 -14 -27
-25 -88 -46 -119 -41 -15 3 -45 -11 -86 -40 -48 -33 -69 -42 -88 -38 -17 5
-24 13 -24 32 0 30 47 54 106 54 20 0 48 9 65 21 48 34 27 44 -66 32z m465
-127 c0 -19 -44 -50 -48 -36 -4 12 26 50 40 50 4 0 8 -6 8 -14z m271 -282 c39
-36 61 -93 61 -161 0 -34 4 -65 9 -69 5 -3 34 2 65 11 51 15 58 15 80 1 33
-22 42 -44 40 -94 -4 -83 -75 -134 -122 -87 -13 13 -26 36 -30 52 -3 15 -18
45 -32 66 l-25 38 -26 -25 c-101 -96 -240 -26 -241 120 0 69 46 146 100 167
28 11 101 0 121 -19z m-577 -103 c10 -15 -37 -73 -93 -116 -62 -48 -121 -139
-172 -269 -17 -44 -42 -92 -54 -105 l-23 -23 -17 26 c-29 44 -16 163 27 257
42 90 129 177 199 198 24 7 58 19 74 26 36 16 52 18 59 6z m-367 -43 c42 -39
25 -85 -50 -136 -108 -74 -227 -70 -227 7 0 37 23 66 76 97 97 57 163 68 201
32z m-187 -274 c0 -8 -67 -34 -87 -33 -13 0 39 24 85 38 1 1 2 -1 2 -5z m1017
-149 c60 -40 80 -153 42 -233 -38 -79 -123 -104 -202 -62 -21 11 -42 18 -48
15 -16 -10 -78 15 -94 38 -34 49 -1 139 60 161 17 6 49 30 72 53 56 55 113 65
170 28z m296 -300 c1 -5 -6 -11 -15 -13 -11 -2 -18 3 -18 13 0 17 30 18 33 0z
m1060 -173 c-6 -26 26 -50 77 -57 l45 -6 -32 18 c-18 9 -33 23 -33 30 0 7 -4
13 -10 13 -5 0 -10 5 -10 11 0 21 158 -15 167 -39 14 -34 -83 -81 -211 -102
-108 -17 -151 32 -68 78 23 13 42 29 42 36 0 13 20 36 31 36 4 0 5 -8 2 -18z
m-1223 -35 c0 -47 -65 -90 -100 -68 -12 8 -10 14 12 35 34 30 70 56 80 56 5 0
8 -11 8 -23z m1006 9 c25 -19 11 -43 -41 -73 -21 -12 -40 -29 -41 -38 -1 -9
-5 -19 -7 -22 -3 -2 -53 -1 -111 3 -116 7 -149 20 -130 51 39 63 275 119 330
79z m-708 -48 c-6 -17 -67 -58 -85 -58 -20 0 -3 27 33 51 33 22 58 25 52 7z
m1216 -71 c27 -20 7 -49 -49 -76 -25 -12 -48 -28 -51 -35 -4 -10 -29 -13 -108
-12 -56 2 -107 6 -114 10 -18 11 -15 30 7 50 11 10 17 25 14 34 -4 13 -3 14 5
3 8 -11 20 -9 68 8 76 26 88 28 155 30 32 1 63 -5 73 -12z m143 -62 c-15 -14
-36 -25 -45 -25 -13 1 -11 6 11 25 15 14 36 25 45 25 13 -1 11 -6 -11 -25z m2
-127 c30 -3 38 -9 59 -49 14 -28 26 -74 30 -115 6 -62 9 -69 30 -72 36 -5 89
-63 102 -111 15 -56 5 -109 -30 -165 -37 -57 -77 -79 -141 -74 -40 2 -48 0
-44 -12 2 -8 13 -49 24 -91 11 -42 32 -107 47 -145 14 -38 31 -92 38 -120 8
-28 19 -61 26 -73 18 -34 31 -12 19 31 -7 28 -6 45 5 73 14 33 17 34 40 24 72
-33 122 -199 80 -264 l-16 -25 42 0 c54 0 93 -28 114 -80 44 -110 -17 -247
-119 -266 -45 -8 -77 0 -113 31 -24 20 -31 22 -36 10 -3 -8 -15 -15 -26 -15
-24 0 -27 27 -5 56 8 11 15 42 15 74 0 69 23 115 77 156 l42 32 -25 23 c-14
13 -27 23 -30 22 -35 -21 -127 196 -190 447 -21 85 -37 126 -61 157 -43 58
-50 112 -24 184 12 31 32 66 45 78 l24 23 -24 35 c-31 46 -46 103 -43 161 2
30 -1 47 -10 50 -18 6 -198 -49 -341 -105 -80 -31 -79 -30 -137 -72 -30 -23
-44 -29 -40 -18 3 9 2 17 -4 17 -14 0 -165 -77 -211 -108 l-40 -26 24 -17 c23
-18 23 -18 3 -26 -11 -4 -55 -30 -98 -57 -76 -47 -92 -66 -184 -212 -10 -16
-13 -17 -22 -4 -14 20 -31 102 -31 149 0 47 27 140 47 163 8 9 65 34 127 54
61 21 127 50 146 65 43 34 145 69 202 69 24 1 59 7 78 14 106 41 304 122 365
151 102 47 97 47 130 10 21 -24 40 -35 64 -37z m206 -25 c31 -36 31 -45 0 -31
-14 6 -25 15 -25 19 0 4 -3 14 -6 23 -9 24 4 19 31 -11z m125 -119 c69 -65 85
-103 71 -164 -5 -23 -14 -47 -19 -52 -24 -24 -90 45 -117 121 -21 61 -20 151
2 151 3 0 31 -25 63 -56z m-1637 -201 c-7 -2 -19 -2 -25 0 -7 3 -2 5 12 5 14
0 19 -2 13 -5z m-161 -42 c-3 -35 -44 -101 -63 -101 -6 0 -26 12 -45 26 -39
30 -44 60 -13 93 17 18 29 21 72 19 l52 -3 -3 -34z m1198 -40 c34 -23 70 -97
70 -143 0 -82 -62 -170 -134 -189 -56 -15 -118 10 -153 62 -47 72 -30 193 35
252 51 46 130 54 182 18z m-433 -173 c18 -13 42 -41 53 -64 38 -77 19 -160
-56 -240 -22 -23 -47 -54 -58 -69 -24 -35 -74 -65 -108 -65 -15 0 -46 7 -68
16 -88 36 -106 156 -38 256 20 29 39 63 43 76 27 93 155 142 232 90z m1259
-423 c44 -47 67 -123 58 -192 -3 -29 -12 -57 -19 -63 -19 -16 -62 7 -70 37 -5
22 -10 24 -35 19 -17 -3 -30 -1 -30 4 0 6 7 10 16 10 11 0 14 5 9 18 -25 64
-11 202 22 202 8 0 31 -16 49 -35z m64 -355 c-12 -23 -30 -27 -30 -7 0 17 10
27 27 27 11 0 11 -5 3 -20z m-402 -170 c19 -4 36 -11 39 -14 10 -10 -32 -7
-68 5 -41 14 -66 35 -29 25 14 -4 40 -11 58 -16z m-691 -20 c38 -23 58 -59 66
-118 3 -24 7 -45 9 -47 2 -2 30 3 63 11 33 7 65 14 71 14 7 0 13 -26 17 -62 6
-78 30 -150 68 -205 16 -23 29 -44 29 -48 0 -21 -201 -80 -312 -91 -69 -7
-170 8 -215 31 -22 12 -22 12 13 46 34 32 104 121 104 132 0 2 -14 7 -32 11
-17 3 -47 18 -65 32 l-34 26 -61 -27 c-34 -15 -76 -37 -95 -48 -23 -13 -38
-16 -44 -10 -7 7 23 24 90 53 l99 42 -5 53 c-3 29 -3 69 1 90 8 38 66 111 101
125 36 15 99 11 132 -10z m748 -52 c27 -12 34 -28 11 -28 -17 0 -66 39 -49 40
7 0 24 -5 38 -12z m15 -104 c0 -17 -22 -14 -28 4 -2 7 3 12 12 12 9 0 16 -7
16 -16z"/>
<path d="M4820 4840 c0 -30 13 -37 37 -22 10 6 9 13 -3 30 -21 30 -34 27 -34
-8z"/>
<path d="M4590 4600 c0 -5 5 -10 11 -10 5 0 7 5 4 10 -3 6 -8 10 -11 10 -2 0
-4 -4 -4 -10z"/>
<path d="M6585 4281 c-3 -5 -1 -12 5 -16 5 -3 10 1 10 9 0 18 -6 21 -15 7z"/>
<path d="M3530 4055 c-31 -37 28 -96 98 -97 38 0 84 20 80 35 -5 15 -124 77
-148 77 -10 0 -23 -7 -30 -15z"/>
<path d="M3343 3826 c-68 -28 -77 -38 -20 -21 48 14 87 32 87 40 0 8 -12 4
-67 -19z"/>
<path d="M5610 3769 c-9 -15 -8 -24 1 -36 12 -13 14 -13 26 3 17 24 17 54 -2
54 -8 0 -19 -9 -25 -21z"/>
<path d="M3280 2876 c0 -8 7 -47 15 -85 8 -39 22 -144 31 -234 14 -137 14
-176 4 -255 -14 -101 -10 -125 12 -65 19 56 16 332 -6 453 -26 150 -39 200
-48 200 -4 0 -8 -6 -8 -14z"/>
<path d="M3292 2358 c-7 -7 -12 -21 -12 -33 0 -27 -57 -105 -77 -105 -9 0 -21
7 -28 17 -8 11 -18 14 -31 9 -15 -6 -9 -12 36 -37 30 -16 69 -43 85 -58 30
-29 55 -31 55 -5 0 7 -6 11 -14 8 -12 -5 -14 6 -12 53 2 32 7 82 11 111 8 55
6 59 -13 40z"/>
<path d="M2850 2340 c0 -17 32 -40 57 -40 30 0 31 -1 -19 28 -21 12 -38 17
-38 12z"/>
<path d="M3268 2093 c-8 -10 -18 -28 -21 -40 -5 -21 -2 -23 34 -23 22 0 52 -6
67 -14 24 -12 30 -12 47 0 47 35 86 4 48 -38 -9 -10 -13 -21 -10 -24 9 -9 46
37 47 58 0 9 11 25 25 36 13 11 21 22 18 26 -10 9 -73 7 -138 -5 -58 -11 -60
-10 -80 15 -20 25 -22 26 -37 9z"/>
<path d="M3106 1977 c-16 -13 -25 -26 -20 -30 5 -3 25 8 44 24 21 17 29 29 20
29 -8 0 -28 -11 -44 -23z"/>
</g>
</svg>
