<?xml version="1.0" standalone="no"?>
<!DOCTYPE svg PUBLIC "-//W3C//DTD SVG 20010904//EN" "http://www.w3.org/TR/2001/REC-SVG-20010904/DTD/svg10.dtd">
<svg version="1.0" xmlns="http://www.w3.org/2000/svg" width="640.000000pt" height="640.000000pt"
        viewBox="0 0 640.000000 640.000000" preserveAspectRatio="xMidYMid meet">

        <g transform="translate(0.000000,640.000000) scale(0.100000,-0.100000)" fill="#00bc8c" stroke="none">
                <path d="M1672 4744 c3 -10 31 -124 64 -253 l59 -234 235 -215 c129 -118 251
-231 270 -250 l35 -35 -75 40 c-41 23 -144 78 -228 123 -85 45 -155 80 -156
78 -2 -2 51 -235 77 -339 5 -18 90 -91 297 -254 159 -126 289 -230 287 -231
-2 -2 -107 28 -235 66 -127 39 -235 70 -241 70 -5 0 14 -90 42 -199 l52 -199
335 -154 335 -154 50 22 c67 29 200 70 255 79 43 6 40 4 -65 -59 -61 -37 -133
-83 -160 -104 -53 -40 -30 1 -454 -797 l-64 -120 249 245 c881 866 1549 1329
2004 1390 47 6 86 13 87 14 2 2 -210 176 -326 268 -84 65 -156 91 -256 91
-100 -1 -154 -20 -333 -121 l-133 -75 103 -99 103 -99 -80 54 c-44 30 -537
369 -1095 754 -558 384 -1021 703 -1029 708 -11 6 -13 3 -9 -11z" />
                <path d="M2830 4737 c0 -47 113 -734 123 -743 54 -53 644 -504 653 -500 7 3
76 48 154 101 l141 97 -353 346 c-194 190 -435 427 -535 526 -101 99 -183 177
-183 173z" />
        </g>
</svg>